<svg width="15" height="14" viewBox="0 0 15 14" fill="white" xmlns="http://www.w3.org/2000/svg">
<path d="M8.58865 0.700102C8.52275 0.635143 8.44454 0.583994 8.35861 0.549652C8.27269 0.51531 8.18077 0.498467 8.08825 0.500109C7.99573 0.501752 7.90447 0.521848 7.81981 0.559218C7.73516 0.596588 7.65882 0.650482 7.59526 0.717739C7.53171 0.784996 7.48222 0.864264 7.4497 0.950895C7.41717 1.03753 7.40227 1.12978 7.40586 1.22224C7.40946 1.31471 7.43147 1.40553 7.47062 1.48937C7.50977 1.57322 7.56526 1.64841 7.63384 1.71053L12.4904 6.30382L0.695235 6.30382C0.510843 6.30382 0.334002 6.37707 0.203618 6.50746C0.0732336 6.63784 -1.43051e-05 6.81468 -1.43051e-05 6.99907C-1.43051e-05 7.18347 0.0732336 7.3603 0.203618 7.49069C0.334002 7.62107 0.510843 7.69432 0.695235 7.69432L12.4923 7.69432L7.63384 12.2895C7.56526 12.3516 7.50977 12.4268 7.47062 12.5106C7.43147 12.5945 7.40946 12.6853 7.40586 12.7778C7.40227 12.8702 7.41717 12.9625 7.4497 13.0491C7.48222 13.1357 7.53171 13.215 7.59526 13.2823C7.65882 13.3495 7.73516 13.4034 7.81981 13.4408C7.90447 13.4782 7.99573 13.4982 8.08825 13.4999C8.18077 13.5015 8.27269 13.4847 8.35861 13.4503C8.44454 13.416 8.52275 13.3649 8.58865 13.2999L14.5381 7.673C14.6859 7.53333 14.7836 7.34898 14.8162 7.14832C14.8381 7.04807 14.8374 6.94424 14.8144 6.84426C14.7807 6.64649 14.6838 6.46498 14.5381 6.327L8.58865 0.700102Z" fill="white"/>
</svg>
