<svg width="9" height="14" viewBox="0 0 9 14" fill="none" xmlns="http://www.w3.org/2000/svg">
<path d="M8.77837 5.34718C8.84859 5.28008 8.90434 5.20025 8.94238 5.1123C8.98042 5.02435 9 4.93001 9 4.83473C9 4.73945 8.98042 4.64511 8.94238 4.55716C8.90434 4.4692 8.84859 4.38938 8.77837 4.32228L5.03199 0.713494C4.96233 0.645845 4.87946 0.592151 4.78815 0.555508C4.69685 0.518865 4.59891 0.5 4.5 0.5C4.40109 0.5 4.30315 0.518865 4.21185 0.555508C4.12054 0.592151 4.03767 0.645845 3.96801 0.713494L0.221635 4.32228C0.151406 4.38938 0.0956631 4.4692 0.0576239 4.55716C0.0195837 4.64511 0 4.73945 0 4.83473C0 4.93001 0.0195837 5.02435 0.0576239 5.1123C0.0956631 5.20025 0.151406 5.28008 0.221635 5.34718C0.29129 5.41483 0.37416 5.46852 0.465466 5.50516C0.556772 5.5418 0.654707 5.56067 0.75362 5.56067C0.852533 5.56067 0.950468 5.5418 1.04177 5.50516C1.13308 5.46852 1.21595 5.41483 1.28561 5.34718L4.5 2.24362L7.71439 5.34718C7.78405 5.41483 7.86692 5.46852 7.95823 5.50516C8.04953 5.5418 8.14747 5.56067 8.24638 5.56067C8.34529 5.56067 8.44323 5.5418 8.53453 5.50516C8.62584 5.46852 8.70871 5.41483 8.77837 5.34718ZM5.03199 13.2865L8.77837 9.67772C8.84823 9.61042 8.90364 9.53053 8.94145 9.44261C8.97926 9.35468 8.99872 9.26044 8.99872 9.16527C8.99872 8.97307 8.91946 8.78873 8.77837 8.65282C8.7085 8.58553 8.62557 8.53215 8.53429 8.49573C8.44301 8.45931 8.34518 8.44056 8.24638 8.44056C8.04685 8.44056 7.85549 8.51691 7.71439 8.65282L4.5 11.7564L1.28561 8.65282C1.21595 8.58517 1.13308 8.53148 1.04177 8.49484C0.950468 8.45819 0.852533 8.43933 0.75362 8.43933C0.654707 8.43933 0.556772 8.45819 0.465466 8.49484C0.37416 8.53148 0.29129 8.58517 0.221635 8.65282C0.151406 8.71992 0.0956631 8.79975 0.0576239 8.8877C0.0195837 8.97565 0 9.06999 0 9.16527C0 9.26055 0.0195837 9.35489 0.0576239 9.44284C0.0956631 9.5308 0.151406 9.61062 0.221635 9.67772L3.96801 13.2865C4.03767 13.3542 4.12054 13.4079 4.21185 13.4445C4.30315 13.4811 4.40109 13.5 4.5 13.5C4.59891 13.5 4.69685 13.4811 4.78815 13.4445C4.87946 13.4079 4.96233 13.3542 5.03199 13.2865Z" fill="#E9E9E9"/>
</svg>
