<svg width="12" height="12" viewBox="0 0 12 12" fill="none" xmlns="http://www.w3.org/2000/svg">
<path d="M0.5 4.99998C0.367392 4.99998 0.240215 4.9473 0.146447 4.85353C0.0526785 4.75976 0 4.63258 0 4.49998V0.500977C0 0.368368 0.0526785 0.241191 0.146447 0.147423C0.240215 0.0536551 0.367392 0.000976562 0.5 0.000976562H4.5C4.63261 0.000976562 4.75979 0.0536551 4.85355 0.147423C4.94732 0.241191 5 0.368368 5 0.500977V4.49998C5 4.63258 4.94732 4.75976 4.85355 4.85353C4.75979 4.9473 4.63261 4.99998 4.5 4.99998H0.5ZM7.5 4.99998C7.36739 4.99998 7.24021 4.9473 7.14645 4.85353C7.05268 4.75976 7 4.63258 7 4.49998V0.500977C7 0.368368 7.05268 0.241191 7.14645 0.147423C7.24021 0.0536551 7.36739 0.000976562 7.5 0.000976562H11.499C11.6316 0.000976562 11.7588 0.0536551 11.8526 0.147423C11.9463 0.241191 11.999 0.368368 11.999 0.500977V4.49998C11.999 4.63258 11.9463 4.75976 11.8526 4.85353C11.7588 4.9473 11.6316 4.99998 11.499 4.99998H7.5ZM0.5 12C0.367392 12 0.240215 11.9473 0.146447 11.8535C0.0526785 11.7598 0 11.6326 0 11.5V7.49998C0 7.36737 0.0526785 7.24019 0.146447 7.14642C0.240215 7.05265 0.367392 6.99998 0.5 6.99998H4.5C4.63261 6.99998 4.75979 7.05265 4.85355 7.14642C4.94732 7.24019 5 7.36737 5 7.49998V11.5C5 11.6326 4.94732 11.7598 4.85355 11.8535C4.75979 11.9473 4.63261 12 4.5 12H0.5ZM7.5 12C7.36739 12 7.24021 11.9473 7.14645 11.8535C7.05268 11.7598 7 11.6326 7 11.5V7.49998C7 7.36737 7.05268 7.24019 7.14645 7.14642C7.24021 7.05265 7.36739 6.99998 7.5 6.99998H11.499C11.6316 6.99998 11.7588 7.05265 11.8526 7.14642C11.9463 7.24019 11.999 7.36737 11.999 7.49998V11.5C11.999 11.6326 11.9463 11.7598 11.8526 11.8535C11.7588 11.9473 11.6316 12 11.499 12H7.5Z" fill="white"/>
</svg>
