<svg width="24" height="24" viewBox="0 0 24 24" fill="none" xmlns="http://www.w3.org/2000/svg">
<path d="M8.56265 10.8463C8.56265 10.1352 8.76425 9.44008 9.14196 8.84883C9.51967 8.25757 10.0565 7.79675 10.6846 7.52462C11.3128 7.2525 12.0039 7.1813 12.6707 7.32003C13.3375 7.45875 13.95 7.80118 14.4307 8.304C14.9115 8.80682 15.2389 9.44745 15.3715 10.1449C15.5041 10.8423 15.4361 11.5652 15.1759 12.2222C14.9157 12.8791 14.4751 13.4407 13.9098 13.8357C13.3446 14.2308 12.68 14.4417 12.0001 14.4417C11.0884 14.4417 10.2141 14.0629 9.56945 13.3886C8.9248 12.7143 8.56265 11.7998 8.56265 10.8463ZM18.4187 15.5186C18.2795 15.4341 18.115 15.4074 17.9578 15.4439C17.8006 15.4804 17.6623 15.5773 17.5703 15.7156C17.4357 15.9096 17.2918 16.0964 17.1391 16.2753C16.6843 15.585 16.1066 14.993 15.4375 14.5315C15.3805 14.492 15.3126 14.4731 15.2443 14.4778C15.1759 14.4826 15.111 14.5106 15.0594 14.5577C14.2104 15.3261 13.1252 15.749 12.0024 15.749C10.8797 15.749 9.79447 15.3261 8.94545 14.5577C8.8935 14.5094 8.82766 14.4807 8.75834 14.4759C8.68901 14.4712 8.62015 14.4908 8.56265 14.5315C7.89339 14.992 7.31539 15.5833 6.86033 16.2728C5.8843 15.1265 5.28617 13.6825 5.1541 12.1537H6.35721C6.45837 12.1554 6.55847 12.132 6.64932 12.0854C6.74016 12.0388 6.81917 11.9704 6.87986 11.8857C6.96792 11.7598 7.01003 11.6051 6.99856 11.4495C6.9871 11.294 6.92283 11.1478 6.81736 11.0375L4.94239 9.0764C4.88434 9.01562 4.81541 8.96741 4.73954 8.93451C4.66367 8.90161 4.58234 8.88468 4.50021 8.88468C4.41807 8.88468 4.33674 8.90161 4.26087 8.93451C4.185 8.96741 4.11607 9.01562 4.05803 9.0764L2.18305 11.0375C2.07758 11.1478 2.01331 11.294 2.00185 11.4495C1.99039 11.6051 2.03249 11.7598 2.12055 11.8857C2.18125 11.9704 2.26025 12.0388 2.35109 12.0854C2.44194 12.132 2.54204 12.1554 2.6432 12.1537H3.89865C4.02648 13.8916 4.66217 15.5464 5.71954 16.8937C6.77692 18.241 8.20482 19.2157 9.80967 19.6855C11.4145 20.1553 13.1187 20.0976 14.6911 19.5202C16.2635 18.9427 17.6282 17.8735 18.6 16.4575C18.6501 16.3845 18.6853 16.3015 18.7034 16.2136C18.7215 16.1257 18.722 16.0349 18.705 15.9467C18.688 15.8586 18.6538 15.7751 18.6046 15.7015C18.5553 15.6278 18.492 15.5656 18.4187 15.5186ZM21.9523 11.25C21.905 11.1305 21.8249 11.0284 21.7222 10.9565C21.6194 10.8847 21.4986 10.8463 21.375 10.8463H20.1015C19.9737 9.10835 19.338 7.45355 18.2806 6.10625C17.2233 4.75895 15.7954 3.78432 14.1905 3.31451C12.5857 2.84469 10.8815 2.90241 9.30908 3.47983C7.73665 4.05726 6.37202 5.12647 5.40019 6.54249C5.30343 6.68336 5.26413 6.85866 5.29095 7.02983C5.31776 7.201 5.40848 7.35402 5.54316 7.45522C5.67784 7.55643 5.84544 7.59753 6.00909 7.56949C6.17274 7.54145 6.31904 7.44655 6.4158 7.30569C7.23343 6.11501 8.37947 5.21415 9.70034 4.72385C11.0212 4.23354 12.4538 4.17721 13.8061 4.56241C15.1585 4.94761 16.3659 5.75592 17.2667 6.87904C18.1675 8.00215 18.7186 9.38641 18.8461 10.8463H17.625C17.5013 10.8462 17.3804 10.8845 17.2775 10.9563C17.1747 11.0281 17.0945 11.1303 17.0471 11.2498C16.9998 11.3693 16.9874 11.5008 17.0116 11.6277C17.0357 11.7545 17.0953 11.8711 17.1828 11.9625L19.0578 13.9236C19.1158 13.9844 19.1848 14.0326 19.2606 14.0655C19.3365 14.0984 19.4178 14.1153 19.5 14.1153C19.5821 14.1153 19.6634 14.0984 19.7393 14.0655C19.8152 14.0326 19.8841 13.9844 19.9422 13.9236L21.8171 11.9625C21.9045 11.871 21.964 11.7545 21.9881 11.6277C22.0121 11.5008 21.9997 11.3694 21.9523 11.25Z" fill="white"/>
</svg>
