<svg width="165" height="166" viewBox="0 0 165 166" fill="none" xmlns="http://www.w3.org/2000/svg">
<g opacity="0.25">
<rect y="41.6137" width="130" height="130" rx="65" transform="rotate(-18.242 0 41.6137)" fill="url(#paint0_linear_0_81)" fill-opacity="0.55"/>
<path d="M58.6051 110.346C58.9563 109.65 59.5759 109.107 60.3399 108.855L129.624 86.0192C130.89 85.6019 132.027 86.9213 131.427 88.1112L122.251 106.309C121.9 107.005 121.28 107.548 120.516 107.8L51.2323 130.636C49.9662 131.053 48.8295 129.734 49.4295 128.544L58.6051 110.346Z" fill="#E9E9E9"/>
<path d="M41.7625 59.2456C42.1356 58.5418 42.7552 57.9988 43.4974 57.7542L112.781 34.9185C114.047 34.5012 115.184 35.8206 114.584 37.0105L105.409 55.2081C105.057 55.9046 104.438 56.4477 103.674 56.6995L34.3897 79.5351C33.1236 79.9524 31.987 78.6331 32.587 77.4431L41.7625 59.2456Z" fill="#E9E9E9"/>
<path d="M108.74 65.3148C108.043 64.9635 107.222 64.8954 106.458 65.1472L37.174 87.9829C35.908 88.4002 35.7786 90.1368 36.9685 90.7368L55.1661 99.9123C55.8626 100.264 56.6837 100.332 57.4477 100.08L126.732 77.2442C127.998 76.8269 128.127 75.0903 126.937 74.4903L108.74 65.3148Z" fill="#E9E9E9"/>
</g>
<defs>
<linearGradient id="paint0_linear_0_81" x1="65" y1="41.6137" x2="65" y2="171.614" gradientUnits="userSpaceOnUse">
<stop stop-color="#E9E9E9"/>
<stop offset="1" stop-color="#838383" stop-opacity="0"/>
</linearGradient>
</defs>
</svg>
