<svg width="183" height="183" viewBox="0 0 183 183" fill="none" xmlns="http://www.w3.org/2000/svg">
<g opacity="0.25" clip-path="url(#clip0_0_68)">
<path d="M150.679 65.0457C165.12 97.9198 150.151 136.266 117.316 150.676C84.4406 165.118 46.0952 150.149 31.6854 117.315C17.2444 84.4407 32.1735 46.1257 65.0487 31.6845C97.8524 17.2338 136.238 32.1709 150.679 65.0457Z" fill="url(#paint0_linear_0_68)" fill-opacity="0.55"/>
<path d="M110.71 65.8426C106.434 58.2367 98.3938 58.5478 89.3482 61.6264L84.5028 50.5449L77.7914 53.4876L82.5308 64.2659C80.7648 65.0537 78.9587 65.8725 77.1836 66.7315L72.4132 55.9129L65.7018 58.8556L70.5563 69.866C69.0935 70.5477 67.6709 71.1984 66.2884 71.818L66.2574 71.7778L56.9728 75.8756L60.1458 83.0508C60.1458 83.0508 65.0693 80.7845 65.02 80.8868C67.7447 79.6787 69.3268 80.8946 70.1784 82.1619L75.6964 94.7775C75.8881 94.6934 76.1201 94.5783 76.4543 94.5124C76.2224 94.6276 75.9904 94.7427 75.7274 94.8177L83.4625 112.459C83.7094 113.359 83.7939 114.963 81.9165 115.773C82.0188 115.822 77.0423 117.937 77.0423 117.937L79.2313 126.579L88.0118 122.743C89.6572 122.048 91.2314 121.344 92.8367 120.681L97.7442 131.843L104.456 128.9L99.6102 117.818C101.447 117.04 103.285 116.261 105.01 115.504L109.865 126.515L116.576 123.572L111.669 112.41C122.708 106.763 129.38 100.449 125.652 89.4014C122.698 80.5165 116.99 78.447 109.878 79.7095C112.962 75.977 113.839 71.3832 110.71 65.8426ZM111.793 93.8915C115.47 102.217 100.739 107.573 96.1776 109.56L89.6726 94.7549C94.2345 92.7681 107.987 85.1511 111.793 93.8915ZM99.489 74.3264C102.821 81.9564 90.5028 86.2816 86.7079 87.9321L80.8225 74.5093C84.6174 72.8589 96.0108 66.4243 99.489 74.3264Z" fill="white"/>
</g>
<defs>
<linearGradient id="paint0_linear_0_68" x1="51.4212" y1="39.76" x2="130.941" y2="142.602" gradientUnits="userSpaceOnUse">
<stop stop-color="#E9E9E9"/>
<stop offset="1" stop-color="#838383" stop-opacity="0"/>
</linearGradient>
<clipPath id="clip0_0_68">
<rect width="130" height="130" fill="white" transform="translate(0 79.5199) rotate(-37.7119)"/>
</clipPath>
</defs>
</svg>
