<svg width="178" height="177" viewBox="0 0 178 177" fill="none" xmlns="http://www.w3.org/2000/svg">
<g opacity="0.25" clip-path="url(#clip0_0_58)">
<path d="M57.5727 145.225C89.0028 162.57 128.543 151.151 145.888 119.721C163.233 88.291 151.815 48.7509 120.385 31.4059C88.9544 14.0609 49.4143 25.4792 32.0693 56.9093C14.7243 88.3394 26.1425 127.88 57.5727 145.225Z" fill="url(#paint0_linear_0_58)" fill-opacity="0.55"/>
<path fill-rule="evenodd" clip-rule="evenodd" d="M93.1001 97.0069L93.104 96.9998C92.6971 96.8124 90.6136 95.8204 86.1142 93.3373C82.5218 91.3548 80.0518 89.8525 79.1862 89.3191L79.1803 89.3298C65.687 81.0899 56.6939 72.9857 58.2838 70.1047C59.8718 67.2272 71.5226 70.5155 85.6931 77.5282L80.5033 86.9325C81.3714 87.4951 83.8763 89.077 87.4545 91.0516C91.7476 93.4208 93.9976 94.4305 94.4192 94.6168L99.607 85.2161C113.068 93.4473 122.036 101.538 120.45 104.412C118.86 107.293 107.238 104.011 93.1001 97.0069ZM100.147 84.2379L104.791 75.8225L124.048 86.4494L131.13 73.6164L78.6984 44.6817L71.6164 57.5148L90.8731 68.1418L86.2309 76.5537C70.1844 68.6355 56.7032 65.2419 54.6539 68.9553C52.6047 72.6686 62.6646 82.2617 77.9162 91.6204L63.0337 118.588L76.9516 126.269L91.838 99.294C107.86 107.198 121.31 110.58 123.358 106.87C125.405 103.16 115.374 93.5829 100.147 84.2379Z" fill="white"/>
</g>
<defs>
<linearGradient id="paint0_linear_0_58" x1="120.385" y1="31.4059" x2="57.5727" y2="145.225" gradientUnits="userSpaceOnUse">
<stop stop-color="#E9E9E9"/>
<stop offset="1" stop-color="#838383" stop-opacity="0"/>
</linearGradient>
<clipPath id="clip0_0_58">
<rect width="130" height="130" fill="white" transform="translate(63.4752) rotate(28.8925)"/>
</clipPath>
</defs>
</svg>
