<svg width="184" height="184" viewBox="0 0 184 184" fill="none" xmlns="http://www.w3.org/2000/svg">
<g opacity="0.25" clip-path="url(#clip0_0_62)">
<path d="M48.775 140.515C75.7127 164.244 116.786 161.643 140.515 134.705C164.244 107.767 161.643 66.694 134.705 42.9651C107.767 19.2361 66.6941 21.8373 42.9651 48.775C19.2361 75.7127 21.8373 116.786 48.775 140.515Z" fill="url(#paint0_linear_0_62)" fill-opacity="0.55"/>
<path d="M98.2974 109.015C104.001 102.54 102.054 96.884 95.0662 89.0828C90.1462 83.4333 90.3359 80.9747 92.6185 78.3835C94.901 75.7923 98.2267 75.7659 101.94 79.0366C105.284 81.9824 106.166 84.7301 104.646 88.3235C104.506 88.6772 104.478 89.0652 104.565 89.4353C104.653 89.8055 104.851 90.14 105.134 90.3939L108.107 93.012C108.274 93.1678 108.472 93.288 108.687 93.3652C108.903 93.4423 109.132 93.4749 109.36 93.461C109.588 93.4471 109.812 93.3869 110.016 93.2841C110.221 93.1813 110.402 93.0381 110.55 92.8631L110.711 92.6802C112.117 90.351 112.715 87.6224 112.412 84.9184C112.108 82.2144 110.92 79.6863 109.033 77.7268L112.942 73.2883C113.595 72.5475 113.526 71.5013 112.763 70.499L109.974 68.0419C109.233 67.3894 108.186 67.4528 107.184 68.2157L103.435 72.4713C97.2097 68.2976 90.4227 68.8915 86.3464 73.519C80.9704 79.622 82.5647 85.2979 89.5523 93.0991C93.9424 98.6066 94.6328 101.191 92.0253 104.151C89.4206 107.108 85.0265 106.854 81.4964 103.744C76.6646 99.4878 76.7852 95.9829 78.6736 92.7144C79.1406 91.8155 78.9073 90.9495 78.3494 90.4581L75.1912 87.6761C75.0235 87.521 74.826 87.4014 74.6107 87.3248C74.3955 87.2481 74.1669 87.2159 73.9388 87.23C73.7108 87.2442 73.4879 87.3045 73.2838 87.4072C73.0797 87.51 72.8986 87.653 72.7513 87.8278L72.5902 88.0107C69.2547 93.2907 69.2976 99.2405 74.6116 105.567L70.6991 110.009C70.0493 110.747 70.1157 111.796 70.8813 112.795L73.6707 115.252C74.4114 115.905 75.458 115.841 76.4576 115.082L80.3728 110.637C86.7621 114.625 93.8988 114.009 98.3001 109.012L98.2974 109.015Z" fill="white"/>
<path d="M59.4485 109.297C49.5212 91.3484 56.2676 68.7058 74.2057 59.2081C83.8396 53.889 95.1822 53.3721 105.247 57.3056C106.315 57.592 107.173 57.3621 107.989 56.4353L110.272 53.8442C110.922 53.1064 111.041 52.2267 110.461 51.3855C110.275 51.2217 109.904 50.8941 109.557 50.9132C104.225 48.5358 98.4762 47.2365 92.6407 47.0901C86.8051 46.9437 80.9982 47.953 75.5544 50.06C70.1105 52.167 65.1372 55.3301 60.9208 59.3671C56.7044 63.404 53.3282 68.2352 50.9866 73.5823C45.1976 86.8901 46.1789 101.885 53.6509 114.379C54.0698 115.403 55.1385 115.689 55.974 115.109C56.321 115.09 56.4875 114.901 56.8124 114.532L59.095 111.941C59.5837 111.386 59.6787 110.16 59.4485 109.297ZM129.991 68.9186C129.574 67.8915 128.503 67.6082 127.67 68.1848C127.32 68.207 127.157 68.3929 126.832 68.7618L124.549 71.3529C123.897 72.0937 123.802 73.3202 124.032 74.1835C133.959 92.1318 127.213 114.774 109.275 124.272C99.6407 129.591 88.2981 130.108 78.2337 126.175C77.165 125.888 76.3074 126.118 75.4911 127.045L73.2086 129.636C72.5587 130.374 72.4388 131.253 73.0189 132.095C73.2048 132.258 73.5767 132.586 73.9238 132.567C79.2551 134.944 85.0041 136.244 90.8396 136.39C96.6752 136.537 102.482 135.527 107.926 133.42C113.37 131.313 118.343 128.15 122.559 124.113C126.776 120.076 130.152 115.245 132.494 109.898C138.444 96.4072 137.277 81.2487 129.991 68.9186Z" fill="white"/>
</g>
<defs>
<linearGradient id="paint0_linear_0_62" x1="134.705" y1="42.9651" x2="48.775" y2="140.515" gradientUnits="userSpaceOnUse">
<stop stop-color="#E9E9E9"/>
<stop offset="1" stop-color="#838383" stop-opacity="0"/>
</linearGradient>
<clipPath id="clip0_0_62">
<rect width="130" height="130" fill="white" transform="translate(85.9302) rotate(41.3763)"/>
</clipPath>
</defs>
</svg>
